<svg width="312.5" height="211.83246657671296" viewBox="0 0 312.5 211.83246657671296" class="css-1j8o68f"><defs id="SvgjsDefs1174"><linearGradient id="SvgjsLinearGradient1181"><stop id="SvgjsStop1182" stop-color="#8f5e25" offset="0"></stop><stop id="SvgjsStop1183" stop-color="#fbf4a1" offset="0.5"></stop><stop id="SvgjsStop1184" stop-color="#8f5e25" offset="1"></stop></linearGradient><linearGradient id="SvgjsLinearGradient1185"><stop id="SvgjsStop1186" stop-color="#8f5e25" offset="0"></stop><stop id="SvgjsStop1187" stop-color="#fbf4a1" offset="0.5"></stop><stop id="SvgjsStop1188" stop-color="#8f5e25" offset="1"></stop></linearGradient><linearGradient id="SvgjsLinearGradient1189"><stop id="SvgjsStop1190" stop-color="#8f5e25" offset="0"></stop><stop id="SvgjsStop1191" stop-color="#fbf4a1" offset="0.5"></stop><stop id="SvgjsStop1192" stop-color="#8f5e25" offset="1"></stop></linearGradient></defs><g id="SvgjsG1175" featurekey="rootContainer" transform="matrix(2.6916451688813487,0,0,2.6916451688813487,0,0)" fill="url(#SvgjsLinearGradient1181)"><path xmlns="http://www.w3.org/2000/svg" d="M116.1 78.7H0V0h116.1zM2 76.7h112.1V2H2z"></path></g><g id="SvgjsG1176" featurekey="symbolFeature-0" transform="matrix(0.7572968344293474,0,0,0.7572968344293474,117.41299132355525,39.387714717392235)" fill="url(#SvgjsLinearGradient1185)"><g xmlns="http://www.w3.org/2000/svg"><g><path d="M50.978,97.204c-0.409,0-0.818-0.071-1.208-0.215c-33.149-12.187-35.69-43.216-35.782-44.53    c-0.005-0.081-0.008-0.163-0.008-0.244V8.56c0-1.7,1.222-3.154,2.896-3.448c0.696-0.122,17.243-2.983,34.102-2.983    c16.86,0,33.408,2.862,34.104,2.983c1.675,0.293,2.896,1.748,2.896,3.448v43.655c0,0.081-0.003,0.163-0.009,0.244    c-0.092,1.314-2.633,32.344-35.784,44.53C51.795,97.133,51.387,97.204,50.978,97.204z M20.979,52.075    c0.183,2.104,2.93,27.236,29.998,37.885C78.02,79.323,80.79,54.233,80.979,52.073V11.55c-5.456-0.812-17.804-2.421-30.001-2.421    c-12.196,0-24.542,1.609-29.998,2.421V52.075z"></path></g></g></g><g id="SvgjsG1177" featurekey="nameFeature-0" transform="matrix(1.033185666314578,0,0,1.033185666314578,54.677522623007675,121.18035641090319)" fill="url(#SvgjsLinearGradient1189)"><path d="M22.32 11.440000000000001 l0 28.56 l-5.4 0 l0 -2.64 l-0.08 0 c-1.2267 2.1333 -3.32 3.2 -6.28 3.2 c-2.8533 0 -5.1132 -1.04 -6.78 -3.12 s-2.5 -4.7332 -2.5 -7.96 c0 -3.1467 0.84668 -5.72 2.54 -7.72 s3.9 -3 6.62 -3 c1.2533 0 2.4333 0.26 3.54 0.78 s1.9667 1.2867 2.58 2.3 l0.08 0 l0 -10.4 l5.68 0 z M6.96 29.64 c0 1.8933 0.44664 3.4733 1.34 4.74 s2.1133 1.9 3.66 1.9 c1.6267 0 2.8467 -0.59332 3.66 -1.78 s1.22 -2.82 1.22 -4.9 s-0.42668 -3.6933 -1.28 -4.84 s-2.0666 -1.72 -3.64 -1.72 c-1.6267 0 -2.86 0.6 -3.7 1.8 s-1.26 2.8 -1.26 4.8 z M37.027 18.76 c6.0268 0.02668 9.04 1.9866 9.04 5.88 l0 10.96 c0 2.0267 0.24 3.4934 0.72 4.4 l-5.76 0 c-0.21332 -0.64 -0.34664 -1.3067 -0.39996 -2 c-1.68 1.7067 -4 2.56 -6.96 2.56 c-2.16 0 -3.8733 -0.54668 -5.14 -1.64 s-1.9 -2.6133 -1.9 -4.56 c0 -1.8933 0.6 -3.36 1.8 -4.4 c1.2267 -1.0933 3.4534 -1.7866 6.68 -2.08 c2.2933 -0.24 3.7466 -0.54 4.36 -0.9 s0.92 -0.91332 0.92 -1.66 c0 -0.93332 -0.28 -1.6266 -0.84 -2.08 s-1.4933 -0.68 -2.8 -0.68 c-1.2 0 -2.1067 0.24668 -2.72 0.74 s-0.97332 1.2866 -1.08 2.38 l-5.68 0 c0.13332 -2.2667 1.0666 -3.9867 2.8 -5.16 s4.0532 -1.76 6.96 -1.76 z M32.307 34.12 c0 1.76 1.16 2.64 3.48 2.64 c3.04 -0.02668 4.5732 -1.5867 4.6 -4.68 l0 -2.2 c-0.45332 0.45332 -1.6 0.78664 -3.44 0.99996 c-1.6 0.18668 -2.7733 0.51336 -3.52 0.98004 s-1.12 1.22 -1.12 2.26 z M63.013999999999996 18.76 c2.8533 0 5.1332 1 6.84 3 s2.56 4.7068 2.56 8.12 c0 3.12 -0.82 5.68 -2.46 7.68 s-3.8467 3 -6.62 3 c-2.72 0 -4.7868 -1.04 -6.2 -3.12 l-0.08 0 l0 9.84 l-5.68 0 l0 -27.96 l5.4 0 l0 2.64 l0.08 0 c1.36 -2.1333 3.4133 -3.2 6.16 -3.2 z M56.854 29.72 c0 2.0267 0.42672 3.6267 1.28 4.8 s2.08 1.76 3.68 1.76 c1.6533 0 2.8866 -0.58668 3.7 -1.76 s1.22 -2.7733 1.22 -4.8 c0 -2.08 -0.44 -3.7133 -1.32 -4.9 s-2.1067 -1.78 -3.68 -1.78 s-2.78 0.58668 -3.62 1.76 s-1.26 2.8133 -1.26 4.92 z M88.361 18.76 c2.8533 0 5.1332 1 6.84 3 s2.56 4.7068 2.56 8.12 c0 3.12 -0.82 5.68 -2.46 7.68 s-3.8467 3 -6.62 3 c-2.72 0 -4.7868 -1.04 -6.2 -3.12 l-0.08 0 l0 9.84 l-5.68 0 l0 -27.96 l5.4 0 l0 2.64 l0.08 0 c1.36 -2.1333 3.4133 -3.2 6.16 -3.2 z M82.20100000000001 29.72 c0 2.0267 0.42672 3.6267 1.28 4.8 s2.08 1.76 3.68 1.76 c1.6533 0 2.8866 -0.58668 3.7 -1.76 s1.22 -2.7733 1.22 -4.8 c0 -2.08 -0.44 -3.7133 -1.32 -4.9 s-2.1067 -1.78 -3.68 -1.78 s-2.78 0.58668 -3.62 1.76 s-1.26 2.8133 -1.26 4.92 z M106.06800000000001 19.32 l4.36 14.12 l0.08 0 l4.36 -14.12 l5.64 0 l-7 20.68 l-6.32 0 l-7.08 -20.68 l5.96 0 z M133.29500000000002 18.76 c6.0268 0.02668 9.04 1.9866 9.04 5.88 l0 10.96 c0 2.0267 0.24 3.4934 0.72 4.4 l-5.76 0 c-0.21332 -0.64 -0.34664 -1.3067 -0.39996 -2 c-1.68 1.7067 -4 2.56 -6.96 2.56 c-2.16 0 -3.8733 -0.54668 -5.14 -1.64 s-1.9 -2.6133 -1.9 -4.56 c0 -1.8933 0.6 -3.36 1.8 -4.4 c1.2267 -1.0933 3.4534 -1.7866 6.68 -2.08 c2.2933 -0.24 3.7466 -0.54 4.36 -0.9 s0.92 -0.91332 0.92 -1.66 c0 -0.93332 -0.28 -1.6266 -0.84 -2.08 s-1.4933 -0.68 -2.8 -0.68 c-1.2 0 -2.1067 0.24668 -2.72 0.74 s-0.97332 1.2866 -1.08 2.38 l-5.68 0 c0.13332 -2.2667 1.0666 -3.9867 2.8 -5.16 s4.0532 -1.76 6.96 -1.76 z M128.57500000000002 34.12 c0 1.76 1.16 2.64 3.48 2.64 c3.04 -0.02668 4.5732 -1.5867 4.6 -4.68 l0 -2.2 c-0.45332 0.45332 -1.6 0.78664 -3.44 0.99996 c-1.6 0.18668 -2.7733 0.51336 -3.52 0.98004 s-1.12 1.22 -1.12 2.26 z M153.322 19.32 l0 11.72 c0 1.6 0.25332 2.84 0.76 3.72 s1.4667 1.32 2.88 1.32 c1.5733 0 2.7 -0.46668 3.38 -1.4 s1.02 -2.4266 1.02 -4.48 l0 -10.88 l5.68 0 l0 20.68 l-5.4 0 l0 -2.88 l-0.12 0 c-1.4133 2.2933 -3.5333 3.44 -6.36 3.44 c-2.6933 0 -4.62 -0.68668 -5.78 -2.06 s-1.74 -3.4866 -1.74 -6.34 l0 -12.84 l5.68 0 z M178.109 11.440000000000001 l0 28.56 l-5.68 0 l0 -28.56 l5.68 0 z M190.69600000000003 13.120000000000001 l0.000039062 6.2 l4.16 0 l0 3.8 l-4.16 0 l0 10.24 c0 0.96 0.16 1.6 0.48 1.92 s0.96 0.48 1.92 0.48 c0.69332 0 1.28 -0.05332 1.76 -0.16 l0 4.44 c-0.8 0.13332 -1.92 0.2 -3.36 0.2 c-2.1867 0 -3.8134 -0.37332 -4.88 -1.12 s-1.6 -2.04 -1.6 -3.88 l0 -12.12 l-3.44 0 l0 -3.8 l3.44 0 l0 -6.2 l5.68 0 z"></path></g></svg>