<svg width="312.5" height="211.83246657671296" viewBox="0 0 312.5 211.83246657671296" class="css-1j8o68f"><defs id="SvgjsDefs1174"><linearGradient id="SvgjsLinearGradient1181"><stop id="SvgjsStop1182" stop-color="#8f5e25" offset="0"></stop><stop id="SvgjsStop1183" stop-color="#fbf4a1" offset="0.5"></stop><stop id="SvgjsStop1184" stop-color="#8f5e25" offset="1"></stop></linearGradient><linearGradient id="SvgjsLinearGradient1185"><stop id="SvgjsStop1186" stop-color="#8f5e25" offset="0"></stop><stop id="SvgjsStop1187" stop-color="#fbf4a1" offset="0.5"></stop><stop id="SvgjsStop1188" stop-color="#8f5e25" offset="1"></stop></linearGradient><linearGradient id="SvgjsLinearGradient1189"><stop id="SvgjsStop1190" stop-color="#8f5e25" offset="0"></stop><stop id="SvgjsStop1191" stop-color="#fbf4a1" offset="0.5"></stop><stop id="SvgjsStop1192" stop-color="#8f5e25" offset="1"></stop></linearGradient></defs>
<g id="SvgjsG1176" featurekey="symbolFeature-0" transform="matrix(0.7572968344293474,0,0,0.7572968344293474,117.41299132355525,39.387714717392235)" fill="url(#SvgjsLinearGradient1185)"><g xmlns="http://www.w3.org/2000/svg"><g><path d="M50.978,97.204c-0.409,0-0.818-0.071-1.208-0.215c-33.149-12.187-35.69-43.216-35.782-44.53    c-0.005-0.081-0.008-0.163-0.008-0.244V8.56c0-1.7,1.222-3.154,2.896-3.448c0.696-0.122,17.243-2.983,34.102-2.983    c16.86,0,33.408,2.862,34.104,2.983c1.675,0.293,2.896,1.748,2.896,3.448v43.655c0,0.081-0.003,0.163-0.009,0.244    c-0.092,1.314-2.633,32.344-35.784,44.53C51.795,97.133,51.387,97.204,50.978,97.204z M20.979,52.075    c0.183,2.104,2.93,27.236,29.998,37.885C78.02,79.323,80.79,54.233,80.979,52.073V11.55c-5.456-0.812-17.804-2.421-30.001-2.421    c-12.196,0-24.542,1.609-29.998,2.421V52.075z"></path></g></g></g>
</svg>